<svg width="36" height="36" viewBox="0 0 36 36" fill="none" xmlns="http://www.w3.org/2000/svg">
<path d="M18 0C8.05941 0 0 8.05941 0 18C0 27.9406 8.05941 36 18 36C27.9406 36 36 27.9406 36 18C36 8.05941 27.9406 0 18 0ZM30.4356 10.3762L18.6386 27.9356L17.5347 29.5792C17.0347 30.3218 16.0594 30.4951 15.3614 29.9604L13.8168 28.7822L5.23762 22.2426C4.5396 21.7129 4.38119 20.6733 4.87624 19.9307L5.9802 18.2871C6.4802 17.5446 7.45545 17.3713 8.15347 17.9059L15.4703 23.4851L26.3614 7.27723C26.8614 6.53465 27.8366 6.36139 28.5347 6.89604L30.0792 8.07426C30.7723 8.59406 30.9356 9.63366 30.4356 10.3762Z" fill="#417DAF"/>
</svg>
