<svg xmlns="http://www.w3.org/2000/svg" viewBox="0 0 16.85 16.85"><defs><style>.cls-1{fill:#f7d45f;}.cls-2{fill:#231f20;}</style></defs><g id="Layer_2" data-name="Layer 2"><g id="Layer_1-2" data-name="Layer 1"><circle class="cls-1" cx="8.43" cy="8.43" r="8.43"/><path class="cls-2" d="M6,11l.71-1a2.22,2.22,0,0,0,1.47.68A1,1,0,0,0,9.3,9.56,1,1,0,0,0,8.23,8.5a1.61,1.61,0,0,0-1,.35L6.51,8.4,6.7,5h3.87V6.28H8.06L8,7.56a1.82,1.82,0,0,1,.76-.16,2,2,0,0,1,2.18,2.12,2.36,2.36,0,0,1-2.51,2.39A3.28,3.28,0,0,1,6,11Z"/></g></g></svg>