<svg xmlns="http://www.w3.org/2000/svg" viewBox="0 0 16.85 16.85"><defs><style>.cls-1{fill:#f7d45f;}.cls-2{fill:#231f20;}</style></defs><g id="Layer_2" data-name="Layer 2"><g id="Layer_1-2" data-name="Layer 1"><circle class="cls-1" cx="8.43" cy="8.43" r="8.43"/><path class="cls-2" d="M6,11l.73-1a2.18,2.18,0,0,0,1.49.7c.67,0,1.11-.3,1.11-.82s-.35-1-1.83-1V7.79c1.22,0,1.61-.37,1.61-.91s-.31-.76-.84-.76A1.85,1.85,0,0,0,7,6.72l-.8-1a3.23,3.23,0,0,1,2.15-.88c1.42,0,2.36.68,2.36,1.88A1.61,1.61,0,0,1,9.53,8.27v.05A1.68,1.68,0,0,1,10.89,10c0,1.27-1.17,2-2.54,2A3,3,0,0,1,6,11Z"/></g></g></svg>