<svg xmlns="http://www.w3.org/2000/svg" viewBox="0 0 16.85 16.85"><defs><style>.cls-1{fill:#f7d45f;}.cls-2{fill:#231f20;}</style></defs><g id="Layer_2" data-name="Layer 2"><g id="Layer_1-2" data-name="Layer 1"><circle class="cls-1" cx="8.43" cy="8.43" r="8.43"/><path class="cls-2" d="M6,8.58C6,6,7.32,4.88,8.76,4.88a2.77,2.77,0,0,1,2,.82l-.84,1a1.54,1.54,0,0,0-1.06-.49c-.79,0-1.42.6-1.42,2.42s.54,2.2,1.11,2.2.86-.33.86-1.1-.38-1-.89-1a1.26,1.26,0,0,0-1.07.73l-.07-1a1.93,1.93,0,0,1,1.44-.82,1.9,1.9,0,0,1,2,2.11A2.2,2.2,0,0,1,8.58,12C7.26,12,6,11,6,8.58Z"/></g></g></svg>